<?xml version="1.0" encoding="iso-8859-1"?>
<!-- Generator: Adobe Illustrator 19.0.0, SVG Export Plug-In . SVG Version: 6.00 Build 0)  -->
<svg version="1.1" id="Capa_1" xmlns="http://www.w3.org/2000/svg" xmlns:xlink="http://www.w3.org/1999/xlink" x="0px" y="0px"
	 viewBox="0 0 512.029 512.029" style="enable-background:new 0 0 512.029 512.029;" xml:space="preserve">
<g>
	<g>
		<path d="M179.214,129.99h-128c-4.719,0-8.533,3.814-8.533,8.533v4.267c0,39.996,32.538,72.533,72.533,72.533
			s72.533-32.538,72.533-72.533v-4.267C187.748,133.804,183.933,129.99,179.214,129.99z M115.214,198.256
			c-29.15,0-53.12-22.596-55.305-51.2h110.618C168.334,175.652,144.364,198.256,115.214,198.256z"/>
	</g>
</g>
<g>
	<g>
		<path d="M507.568,474.89l-29.303-15.915l22.912-2.082c4.702-0.427,8.158-4.574,7.731-9.276c-0.427-4.685-4.642-8.183-9.267-7.723
			l-22.929,2.082l25.967-20.932c3.669-2.961,4.241-8.329,1.28-11.998c-2.953-3.669-8.311-4.25-11.998-1.28l-35.763,28.834
			c-1.741-10.991-7.535-20.983-16.529-27.657c-9.771-7.245-22.187-9.95-34.065-7.501l-4.113,0.853
			c1.161-3.311,2.261-6.647,3.191-10.027l38.767-140.544c0.196-0.734,0.299-1.502,0.299-2.27c0-9.412-7.654-17.067-17.067-17.067
			h-8.533v-51.2v-25.6v-34.133c0-11.401-4.437-22.101-12.484-30.157c0,0,0-0.008-0.008-0.008c0,0,0,0-0.009,0s0,0,0-0.009
			c0,0-0.009,0-0.009-0.009c-8.055-8.047-18.756-12.484-30.157-12.484h-22.067l28.1-28.1c3.337-3.337,3.337-8.73,0-12.066
			c-3.337-3.337-8.73-3.337-12.066,0l-28.1,28.1V19.056c0-4.719-3.814-8.533-8.533-8.533c-4.719,0-8.533,3.814-8.533,8.533v47.667
			l-28.1-28.1c-3.337-3.337-8.73-3.337-12.066,0c-3.337,3.336-3.337,8.73,0,12.066l28.1,28.1h-22.067
			c-11.401,0-22.101,4.437-30.157,12.484c0,0-0.009,0-0.009,0.009c0,0,0,0,0,0.009s0,0-0.009,0c0,0,0,0.009-0.009,0.009
			c-8.047,8.055-12.484,18.756-12.484,30.157v34.133v25.6v51.2h-76.8H85.348c-9.412,0-17.067,7.654-17.067,17.067
			c0,0.768,0.102,1.536,0.307,2.27l14.037,50.893c-9.045,1.775-17.621,4.813-25.651,8.806l-42.402-42.402
			c-3.337-3.337-8.73-3.337-12.066,0c-3.337,3.337-3.337,8.73,0,12.066l15.838,15.838L5.834,301.1
			c-4.463,1.485-6.886,6.315-5.393,10.795c1.195,3.576,4.514,5.837,8.09,5.837c0.888,0,1.801-0.145,2.697-0.444l20.591-6.861
			l10.155,10.155c-25.378,18.637-41.958,48.614-41.958,82.475c0,56.465,45.935,102.4,102.4,102.4
			c16.299,0,31.863-3.729,46.285-11.051c4.992,6.75,12.971,11.051,22.007,11.051c0.043,0,0.094,0,0.145,0l58.129-0.29
			c0.486,0.085,0.922,0.29,1.434,0.29c0.529,0,0.998-0.213,1.502-0.307l184.209-0.913c11.913-0.06,23.339-5.154,31.36-13.969
			c5.811-6.391,9.412-14.396,10.598-22.827l41.327,22.443c1.297,0.7,2.688,1.033,4.07,1.033c3.021,0,5.956-1.613,7.509-4.454
			C513.243,482.323,511.707,477.134,507.568,474.89z M401.081,121.456v30.601l-4.267,4.267l-22.067-22.067l23.842-23.842
			C400.219,113.811,401.081,117.574,401.081,121.456z M320.748,232.39h-30.601h-13.534l22.067-22.067L320.748,232.39z
			 M280.88,168.39l22.067-22.067l17.801,17.801l-22.067,22.067L280.88,168.39z M310.747,198.256l22.067-22.067l22.067,22.067
			l-22.067,22.067L310.747,198.256z M344.88,164.123l17.801-17.801l22.067,22.067l-17.801,17.801L344.88,164.123z M366.948,210.323
			l22.067,22.067H344.88L366.948,210.323z M379.014,198.256l17.801-17.801l4.267,4.267v35.601L379.014,198.256z M353.414,95.856
			h22.067c3.883,0,7.646,0.862,11.042,2.492l-23.842,23.842L344.88,104.39L353.414,95.856z M332.814,116.456l17.801,17.801
			l-17.801,17.801l-17.8-17.801L332.814,116.456z M290.148,95.856h22.067l8.533,8.533l-17.801,17.801l-23.842-23.842
			C282.502,96.71,286.265,95.856,290.148,95.856z M264.548,121.456c0-3.883,0.862-7.646,2.492-11.042l23.842,23.842l-22.067,22.067
			l-4.267-4.267V121.456z M264.548,184.723l4.267-4.267l17.801,17.801l-22.067,22.067V184.723z M179.214,249.456h76.8h25.6
			l0.008,55.142c-0.367,3.166-7.962,13.124-17.075,13.124c-9.114,0-16.708-9.958-17.067-13.005v-18.227
			c0-14.754-11.486-26.76-25.6-26.76s-25.6,11.998-25.6,26.76c0,5.342-3.823,9.694-8.533,9.694s-8.533-4.352-8.533-9.694V249.456z
			 M162.148,249.456v37.035c0,14.754,11.486,26.761,25.6,26.761s25.6-11.998,25.6-26.761c0-5.342,3.823-9.694,8.533-9.694
			c4.71,0,8.533,4.352,8.533,9.694v18.227c0,11.878,15.292,30.071,34.133,30.071c18.842,0,34.133-18.202,34.133-30.071v-55.262h25.6
			h17.067h68.267h16.751l-9.412,34.133h-92.672c-4.719,0-8.533,3.814-8.533,8.533s3.814,8.533,8.533,8.533h87.962l-4.71,17.067
			h-66.185c-4.719,0-8.533,3.814-8.533,8.533s3.814,8.533,8.533,8.533h61.474l-4.71,17.067h-39.697
			c-4.719,0-8.533,3.814-8.533,8.533c0,4.719,3.814,8.533,8.533,8.533h34.995l-5.188,18.799c-1.766,6.409-4.062,12.663-6.707,18.705
			l-185.685,38.468c5.871-13.073,8.986-27.238,8.986-41.839c0-56.465-45.935-102.4-102.4-102.4c-1.041,0-2.048,0.128-3.081,0.154
			c0.017-0.802,0.051-1.613-0.171-2.424l-13.5-48.93H162.148z M143.443,478.457c-0.759,0.145-1.527,0.256-2.244,0.623
			c-12.075,6.178-25.122,9.301-38.784,9.301c-47.053,0-85.333-38.281-85.333-85.333s38.281-85.325,85.333-85.325
			s85.333,38.281,85.333,85.333c0,16.606-4.787,32.546-13.756,46.362l-8.832,1.826C152.206,453.924,143.246,465.435,143.443,478.457
			z M434.839,478.798c-4.873,5.367-11.554,8.346-18.807,8.371l-40.55,0.205V462.79c0-4.719-3.814-8.533-8.533-8.533
			s-8.533,3.814-8.533,8.533v24.67l-51.2,0.256V462.79c0-4.719-3.814-8.533-8.533-8.533s-8.533,3.814-8.533,8.533v25.011
			l-51.2,0.256v-16.725c0-4.719-3.814-8.533-8.533-8.533s-8.533,3.814-8.533,8.533v16.811l-51.106,0.256c-0.017,0-0.043,0-0.06,0
			c-5.376,0-9.788-4.028-10.274-9.395c-0.478-5.222,3.038-9.975,8.183-11.034l87.39-18.108v4.395c0,4.719,3.814,8.533,8.533,8.533
			s8.533-3.814,8.533-8.533v-7.927l51.2-10.607v10.001c0,4.719,3.814,8.533,8.533,8.533c4.719,0,8.533-3.814,8.533-8.533v-13.542
			l67.712-14.029c1.715-0.358,3.456-0.529,5.188-0.529c5.444,0,10.803,1.732,15.241,5.026c5.862,4.343,9.591,11,10.249,18.253
			l1.655,18.355C442.05,466.485,439.729,473.422,434.839,478.798z"/>
	</g>
</g>
<g>
	<g>
		<rect x="68.281" y="394.497" width="17.067" height="17.067"/>
	</g>
</g>
<g>
	<g>
		<rect x="68.281" y="445.697" width="17.067" height="17.067"/>
	</g>
</g>
<g>
	<g>
		<rect x="68.281" y="343.323" width="17.067" height="17.067"/>
	</g>
</g>
<g>
	<g>
		<rect x="42.681" y="368.923" width="17.067" height="17.067"/>
	</g>
</g>
<g>
	<g>
		<rect x="42.681" y="420.097" width="17.067" height="17.067"/>
	</g>
</g>
<g>
	<g>
		<path d="M218.118,68.618L201.58,38.905c-4.352-7.808-12.279-12.715-21.205-13.124c-2.253-0.077-4.454,0.12-6.571,0.572
			l6.485-11.264l-14.78-8.516l-11.819,20.523l-14.814-16.674l-12.766,11.341l14.814,16.666l-21.769,9.327l6.724,15.693l11.913-5.103
			c-0.691,2.048-1.135,4.207-1.297,6.434c-0.64,8.917,3.302,17.357,10.539,22.588l27.571,19.917
			c5.231,3.772,11.273,5.658,17.331,5.658c7.049,0,14.114-2.534,19.934-7.586C222.384,96.019,224.953,80.915,218.118,68.618z
			 M200.539,92.622l-0.034,0.034c-4.48,3.985-11.008,4.326-15.889,0.802l-27.58-19.925c-3.473-2.517-3.61-6.101-3.507-7.535
			c0.102-1.425,0.751-4.958,4.565-6.946l8.593-4.489l5.47-8.004c2.236-3.268,5.461-3.729,7.066-3.729
			c0.137,0,0.256,0.009,0.375,0.009c1.425,0.068,4.983,0.623,7.066,4.378l16.538,29.713
			C206.12,82.178,205.028,88.629,200.539,92.622z"/>
	</g>
</g>
<g>
</g>
<g>
</g>
<g>
</g>
<g>
</g>
<g>
</g>
<g>
</g>
<g>
</g>
<g>
</g>
<g>
</g>
<g>
</g>
<g>
</g>
<g>
</g>
<g>
</g>
<g>
</g>
<g>
</g>
</svg>
